<svg width="68" height="68" xmlns="http://www.w3.org/2000/svg" xmlns:xlink="http://www.w3.org/1999/xlink" xml:space="preserve" overflow="hidden"><g transform="translate(-453 -152)"><g><g><g><g><path d="M521 185.5C521 204.002 506.002 219 487.5 219 468.998 219 454 204.002 454 185.5 454 166.998 468.998 152 487.5 152 506.002 152 521 166.998 521 185.5Z" fill="#46C795" fill-rule="nonzero" fill-opacity="1"/><path d="M511.108 178.242 504.157 178.242 504.157 170.807C505.832 170.258 507.042 168.703 507.042 166.842 507.042 164.525 505.171 162.655 502.854 162.655 500.537 162.655 498.667 164.525 498.667 166.842 498.667 168.769 499.969 170.369 501.737 170.862L501.737 178.242 488.524 178.242 488.524 164.041C490.245 163.52 491.501 161.938 491.501 160.049 491.501 157.732 489.631 155.862 487.314 155.862 484.997 155.862 483.126 157.732 483.126 160.049 483.126 161.938 484.383 163.52 486.104 164.041L486.104 178.242 472.983 178.242 472.983 170.834C474.705 170.313 475.961 168.731 475.961 166.842 475.961 164.525 474.091 162.655 471.774 162.655 469.457 162.655 467.586 164.525 467.586 166.842 467.586 168.731 468.842 170.313 470.564 170.834L470.564 178.242 464.003 178.242C461.752 178.242 459.918 180.066 459.918 182.327L459.918 190.916C459.918 193.168 461.742 195.001 464.003 195.001L470.564 195.001 470.564 200.175C468.842 200.696 467.586 202.278 467.586 204.167 467.586 206.484 469.457 208.354 471.774 208.354 474.091 208.354 475.961 206.484 475.961 204.167 475.961 202.278 474.705 200.696 472.983 200.175L472.983 195.001 486.104 195.001 486.104 206.968C484.383 207.489 483.126 209.071 483.126 210.96 483.126 213.277 484.997 215.148 487.314 215.148 489.631 215.148 491.501 213.277 491.501 210.96 491.501 209.071 490.245 207.489 488.524 206.968L488.524 195.001 501.737 195.001 501.737 200.147C499.969 200.64 498.667 202.241 498.667 204.167 498.667 206.484 500.537 208.354 502.854 208.354 505.171 208.354 507.042 206.484 507.042 204.167 507.042 202.315 505.832 200.761 504.157 200.203L504.157 195.001 511.108 195.001C513.36 195.001 515.193 193.177 515.193 190.916L515.193 182.327C515.193 180.075 513.369 178.242 511.108 178.242Z" fill="#FFFFFF" fill-rule="nonzero" fill-opacity="1"/><path d="M470.024 185.016C470.024 185.491 469.95 185.909 469.801 186.282 469.652 186.654 469.438 186.961 469.149 187.203 468.861 187.445 468.517 187.64 468.107 187.78 467.698 187.919 467.214 187.975 466.656 187.975L465.948 187.975 465.948 190.674C465.948 190.674 465.93 190.758 465.902 190.795 465.874 190.832 465.827 190.86 465.762 190.879 465.697 190.897 465.613 190.916 465.502 190.934 465.39 190.953 465.25 190.953 465.083 190.953 464.915 190.953 464.776 190.953 464.664 190.934 464.552 190.916 464.469 190.907 464.404 190.879 464.338 190.851 464.292 190.832 464.264 190.795 464.236 190.758 464.227 190.72 464.227 190.674L464.227 183.062C464.227 182.857 464.283 182.699 464.385 182.597 464.487 182.494 464.636 182.438 464.804 182.438L466.795 182.438C467 182.438 467.186 182.438 467.372 182.457 467.558 182.476 467.772 182.504 468.023 182.559 468.275 182.615 468.535 182.699 468.796 182.839 469.056 182.978 469.28 183.146 469.457 183.35 469.633 183.555 469.782 183.797 469.875 184.076 469.968 184.355 470.015 184.663 470.015 185.007ZM468.228 185.137C468.228 184.839 468.172 184.597 468.07 184.402 467.968 184.207 467.837 184.067 467.688 183.974 467.54 183.881 467.372 183.825 467.205 183.797 467.037 183.769 466.86 183.76 466.683 183.76L465.948 183.76 465.948 186.635 466.721 186.635C467 186.635 467.223 186.598 467.409 186.524 467.595 186.449 467.744 186.347 467.865 186.217 467.986 186.086 468.07 185.928 468.135 185.742 468.2 185.556 468.228 185.351 468.228 185.137Z" fill="#020202" fill-rule="nonzero" fill-opacity="1"/><path d="M476.799 190.683C476.799 190.683 476.789 190.767 476.761 190.795 476.733 190.823 476.706 190.851 476.65 190.879 476.594 190.907 476.519 190.916 476.436 190.925 476.352 190.934 476.231 190.944 476.101 190.944 475.961 190.944 475.84 190.944 475.747 190.925 475.654 190.907 475.589 190.897 475.533 190.879 475.477 190.86 475.44 190.832 475.421 190.795 475.403 190.758 475.384 190.72 475.384 190.683L475.384 190.013C475.058 190.367 474.733 190.627 474.398 190.795 474.063 190.962 473.718 191.055 473.365 191.055 472.965 191.055 472.63 190.99 472.351 190.86 472.071 190.73 471.857 190.553 471.69 190.32 471.522 190.088 471.401 189.827 471.327 189.529 471.253 189.232 471.215 188.859 471.215 188.413L471.215 184.839C471.215 184.839 471.225 184.756 471.253 184.728 471.28 184.7 471.318 184.672 471.383 184.644 471.448 184.616 471.532 184.607 471.634 184.597 471.736 184.588 471.876 184.579 472.034 184.579 472.192 184.579 472.332 184.579 472.434 184.597 472.537 184.616 472.62 184.625 472.686 184.644 472.751 184.663 472.797 184.69 472.816 184.728 472.834 184.765 472.853 184.802 472.853 184.839L472.853 188.133C472.853 188.441 472.872 188.673 472.909 188.831 472.946 188.99 473.011 189.129 473.086 189.25 473.16 189.371 473.272 189.455 473.393 189.52 473.514 189.585 473.663 189.613 473.83 189.613 474.035 189.613 474.249 189.539 474.463 189.38 474.677 189.222 474.9 189.008 475.142 188.71L475.142 184.83C475.142 184.83 475.152 184.746 475.179 184.718 475.207 184.69 475.245 184.663 475.31 184.635 475.375 184.607 475.459 184.597 475.561 184.588 475.663 184.579 475.803 184.569 475.961 184.569 476.119 184.569 476.259 184.569 476.361 184.588 476.464 184.607 476.547 184.616 476.612 184.635 476.678 184.653 476.715 184.681 476.743 184.718 476.771 184.756 476.78 184.793 476.78 184.83L476.78 190.665Z" fill="#020202" fill-rule="nonzero" fill-opacity="1"/><path d="M484.327 187.687C484.327 188.208 484.271 188.673 484.159 189.083 484.048 189.492 483.88 189.855 483.666 190.143 483.452 190.432 483.192 190.665 482.875 190.813 482.559 190.962 482.205 191.046 481.814 191.046 481.619 191.046 481.433 191.027 481.265 190.99 481.098 190.953 480.93 190.897 480.781 190.813 480.633 190.73 480.474 190.627 480.325 190.497 480.177 190.367 480.018 190.218 479.86 190.041L479.86 190.674C479.86 190.72 479.851 190.758 479.823 190.795 479.795 190.832 479.758 190.851 479.702 190.879 479.646 190.907 479.572 190.916 479.479 190.925 479.386 190.934 479.274 190.934 479.144 190.934 479.013 190.934 478.892 190.934 478.809 190.925 478.725 190.916 478.65 190.897 478.595 190.879 478.539 190.86 478.502 190.832 478.483 190.795 478.464 190.758 478.446 190.72 478.446 190.674L478.446 182.066C478.446 182.066 478.455 181.982 478.483 181.945 478.511 181.908 478.557 181.88 478.613 181.862 478.669 181.843 478.762 181.815 478.864 181.806 478.967 181.796 479.106 181.787 479.265 181.787 479.423 181.787 479.562 181.787 479.665 181.806 479.767 181.824 479.851 181.834 479.916 181.862 479.981 181.889 480.028 181.917 480.046 181.945 480.065 181.973 480.083 182.02 480.083 182.066L480.083 185.295C480.232 185.146 480.381 185.016 480.53 184.914 480.679 184.811 480.828 184.718 480.977 184.653 481.126 184.588 481.275 184.532 481.433 184.504 481.591 184.476 481.758 184.458 481.926 184.458 482.354 184.458 482.726 184.542 483.024 184.718 483.322 184.895 483.573 185.118 483.759 185.416 483.945 185.714 484.085 186.049 484.178 186.44 484.271 186.831 484.308 187.24 484.308 187.678ZM482.615 187.808C482.615 187.557 482.596 187.315 482.559 187.091 482.522 186.868 482.456 186.654 482.363 186.477 482.27 186.3 482.149 186.151 482.01 186.049 481.87 185.947 481.675 185.891 481.461 185.891 481.349 185.891 481.247 185.909 481.144 185.937 481.042 185.965 480.93 186.021 480.819 186.096 480.707 186.17 480.595 186.263 480.474 186.384 480.353 186.505 480.232 186.645 480.102 186.821L480.102 188.757C480.335 189.055 480.558 189.278 480.763 189.436 480.967 189.594 481.2 189.669 481.423 189.669 481.638 189.669 481.814 189.613 481.963 189.501 482.112 189.39 482.233 189.25 482.335 189.073 482.438 188.897 482.503 188.701 482.549 188.478 482.596 188.254 482.615 188.031 482.615 187.808Z" fill="#020202" fill-rule="nonzero" fill-opacity="1"/><path d="M490.766 188.366C490.766 188.813 490.682 189.204 490.515 189.539 490.348 189.874 490.124 190.153 489.845 190.376 489.566 190.599 489.231 190.767 488.849 190.879 488.468 190.99 488.068 191.046 487.63 191.046 487.342 191.046 487.063 191.018 486.811 190.972 486.56 190.925 486.337 190.869 486.151 190.795 485.965 190.72 485.797 190.655 485.667 190.581 485.537 190.506 485.443 190.441 485.388 190.385 485.332 190.33 485.295 190.246 485.267 190.143 485.239 190.041 485.229 189.883 485.229 189.678 485.229 189.539 485.229 189.427 485.239 189.334 485.248 189.241 485.257 189.166 485.285 189.111 485.313 189.055 485.332 189.018 485.36 188.99 485.388 188.962 485.434 188.952 485.471 188.952 485.537 188.952 485.62 188.99 485.732 189.064 485.844 189.138 485.983 189.213 486.16 189.306 486.337 189.399 486.542 189.473 486.783 189.548 487.025 189.622 487.305 189.66 487.621 189.66 487.835 189.66 488.021 189.632 488.179 189.585 488.337 189.539 488.486 189.464 488.598 189.371 488.71 189.278 488.803 189.166 488.859 189.027 488.914 188.887 488.952 188.738 488.952 188.571 488.952 188.375 488.896 188.217 488.793 188.078 488.691 187.938 488.552 187.817 488.384 187.715 488.217 187.612 488.021 187.51 487.807 187.417 487.593 187.324 487.37 187.222 487.146 187.119 486.923 187.017 486.7 186.896 486.486 186.766 486.272 186.635 486.086 186.477 485.909 186.291 485.732 186.105 485.602 185.891 485.499 185.63 485.397 185.37 485.341 185.072 485.341 184.718 485.341 184.309 485.416 183.955 485.564 183.648 485.713 183.341 485.918 183.09 486.169 182.885 486.421 182.68 486.728 182.532 487.072 182.429 487.416 182.327 487.788 182.28 488.17 182.28 488.375 182.28 488.57 182.299 488.775 182.327 488.98 182.355 489.166 182.401 489.333 182.448 489.501 182.494 489.659 182.559 489.798 182.625 489.938 182.69 490.022 182.746 490.068 182.792 490.115 182.839 490.143 182.876 490.152 182.904 490.161 182.932 490.18 182.978 490.189 183.025 490.199 183.071 490.208 183.136 490.208 183.211 490.208 183.285 490.208 183.378 490.208 183.499 490.208 183.63 490.208 183.732 490.199 183.816 490.189 183.899 490.18 183.974 490.161 184.03 490.143 184.086 490.124 184.132 490.096 184.151 490.068 184.169 490.031 184.188 489.985 184.188 489.938 184.188 489.864 184.16 489.752 184.095 489.64 184.03 489.519 183.965 489.37 183.899 489.222 183.834 489.045 183.76 488.84 183.704 488.635 183.648 488.421 183.62 488.179 183.62 487.993 183.62 487.826 183.639 487.686 183.685 487.547 183.732 487.426 183.797 487.332 183.872 487.239 183.946 487.165 184.048 487.118 184.16 487.072 184.272 487.053 184.393 487.053 184.523 487.053 184.709 487.109 184.877 487.212 185.007 487.314 185.137 487.453 185.267 487.621 185.37 487.788 185.472 487.984 185.574 488.207 185.667 488.431 185.761 488.645 185.863 488.877 185.965 489.11 186.068 489.324 186.189 489.547 186.319 489.771 186.449 489.957 186.607 490.133 186.793 490.31 186.98 490.441 187.194 490.543 187.445 490.645 187.696 490.701 187.994 490.701 188.329Z" fill="#020202" fill-rule="nonzero" fill-opacity="1"/><path d="M497.513 190.683C497.513 190.683 497.503 190.767 497.476 190.795 497.448 190.823 497.42 190.851 497.364 190.879 497.308 190.907 497.234 190.916 497.15 190.925 497.066 190.934 496.945 190.944 496.815 190.944 496.675 190.944 496.554 190.944 496.461 190.925 496.368 190.907 496.303 190.897 496.247 190.879 496.191 190.86 496.154 190.832 496.136 190.795 496.117 190.758 496.098 190.72 496.098 190.683L496.098 190.013C495.773 190.367 495.447 190.627 495.112 190.795 494.777 190.962 494.433 191.055 494.079 191.055 493.679 191.055 493.344 190.99 493.065 190.86 492.786 190.73 492.572 190.553 492.404 190.32 492.237 190.088 492.116 189.827 492.041 189.529 491.967 189.232 491.929 188.859 491.929 188.413L491.929 184.839C491.929 184.839 491.939 184.756 491.967 184.728 491.995 184.7 492.032 184.672 492.097 184.644 492.162 184.616 492.246 184.607 492.348 184.597 492.451 184.588 492.59 184.579 492.748 184.579 492.907 184.579 493.046 184.579 493.148 184.597 493.251 184.616 493.335 184.625 493.4 184.644 493.465 184.663 493.511 184.69 493.53 184.728 493.549 184.765 493.567 184.802 493.567 184.839L493.567 188.133C493.567 188.441 493.586 188.673 493.623 188.831 493.66 188.99 493.725 189.129 493.8 189.25 493.874 189.371 493.986 189.455 494.107 189.52 494.228 189.585 494.377 189.613 494.544 189.613 494.758 189.613 494.963 189.539 495.177 189.38 495.391 189.222 495.614 189.008 495.856 188.71L495.856 184.83C495.856 184.83 495.866 184.746 495.894 184.718 495.922 184.69 495.959 184.663 496.024 184.635 496.089 184.607 496.173 184.597 496.275 184.588 496.378 184.579 496.517 184.569 496.675 184.569 496.833 184.569 496.973 184.569 497.075 184.588 497.178 184.607 497.262 184.616 497.327 184.635 497.392 184.653 497.429 184.681 497.457 184.718 497.485 184.756 497.494 184.793 497.494 184.83L497.494 190.665Z" fill="#020202" fill-rule="nonzero" fill-opacity="1"/><path d="M505.05 187.687C505.05 188.208 504.994 188.673 504.883 189.083 504.771 189.492 504.604 189.855 504.39 190.143 504.176 190.432 503.915 190.665 503.599 190.813 503.282 190.962 502.929 191.046 502.538 191.046 502.342 191.046 502.156 191.027 501.989 190.99 501.821 190.953 501.654 190.897 501.505 190.813 501.356 190.73 501.198 190.627 501.049 190.497 500.9 190.367 500.742 190.218 500.584 190.041L500.584 190.674C500.584 190.72 500.574 190.758 500.546 190.795 500.518 190.832 500.481 190.851 500.425 190.879 500.37 190.907 500.295 190.916 500.202 190.925 500.109 190.934 499.997 190.934 499.867 190.934 499.737 190.934 499.616 190.934 499.532 190.925 499.448 190.916 499.374 190.897 499.318 190.879 499.262 190.86 499.225 190.832 499.206 190.795 499.188 190.758 499.169 190.72 499.169 190.674L499.169 182.066C499.169 182.066 499.178 181.982 499.206 181.945 499.234 181.908 499.281 181.88 499.337 181.862 499.392 181.843 499.486 181.815 499.588 181.806 499.69 181.796 499.83 181.787 499.988 181.787 500.146 181.787 500.286 181.787 500.388 181.806 500.491 181.824 500.574 181.834 500.639 181.862 500.705 181.889 500.751 181.917 500.77 181.945 500.788 181.973 500.807 182.02 500.807 182.066L500.807 185.295C500.956 185.146 501.105 185.016 501.254 184.914 501.402 184.811 501.551 184.718 501.7 184.653 501.849 184.588 501.998 184.532 502.156 184.504 502.314 184.476 502.482 184.458 502.649 184.458 503.078 184.458 503.45 184.542 503.747 184.718 504.045 184.895 504.297 185.118 504.483 185.416 504.669 185.714 504.808 186.049 504.901 186.44 504.994 186.831 505.032 187.24 505.032 187.678ZM503.338 187.808C503.338 187.557 503.319 187.315 503.282 187.091 503.245 186.868 503.18 186.654 503.087 186.477 502.994 186.3 502.873 186.151 502.733 186.049 502.594 185.947 502.398 185.891 502.184 185.891 502.073 185.891 501.97 185.909 501.868 185.937 501.765 185.965 501.654 186.021 501.542 186.096 501.43 186.17 501.319 186.263 501.198 186.384 501.077 186.505 500.956 186.645 500.826 186.821L500.826 188.757C501.058 189.055 501.282 189.278 501.486 189.436 501.691 189.594 501.924 189.669 502.147 189.669 502.361 189.669 502.538 189.613 502.687 189.501 502.836 189.39 502.957 189.25 503.059 189.073 503.161 188.897 503.226 188.701 503.273 188.478 503.319 188.254 503.338 188.031 503.338 187.808Z" fill="#020202" fill-rule="nonzero" fill-opacity="1"/><path d="M511.871 187.147C511.871 187.268 511.871 187.37 511.853 187.454 511.834 187.538 511.815 187.603 511.797 187.65 511.778 187.696 511.741 187.733 511.704 187.761 511.667 187.789 511.629 187.798 511.592 187.798L509.554 187.798 509.554 190.013C509.554 190.013 509.545 190.097 509.517 190.125 509.489 190.153 509.461 190.19 509.405 190.209 509.349 190.227 509.284 190.255 509.191 190.264 509.098 190.274 508.996 190.283 508.866 190.283 508.735 190.283 508.624 190.283 508.54 190.264 508.456 190.246 508.382 190.237 508.335 190.209 508.289 190.181 508.242 190.153 508.223 190.125 508.205 190.097 508.186 190.05 508.186 190.013L508.186 187.798 506.158 187.798C506.158 187.798 506.083 187.789 506.046 187.761 506.009 187.733 505.981 187.705 505.962 187.65 505.944 187.594 505.916 187.529 505.897 187.454 505.878 187.38 505.878 187.268 505.878 187.147 505.878 187.026 505.878 186.924 505.897 186.84 505.916 186.756 505.925 186.691 505.953 186.635 505.981 186.579 506.009 186.552 506.037 186.524 506.065 186.496 506.102 186.486 506.139 186.486L508.186 186.486 508.186 184.272C508.186 184.272 508.196 184.188 508.223 184.151 508.251 184.113 508.289 184.086 508.335 184.058 508.382 184.03 508.456 184.011 508.54 184.002 508.624 183.993 508.735 183.983 508.866 183.983 508.996 183.983 509.108 183.983 509.191 184.002 509.275 184.02 509.349 184.03 509.405 184.058 509.461 184.086 509.498 184.113 509.517 184.151 509.536 184.188 509.554 184.225 509.554 184.272L509.554 186.486 511.611 186.486C511.611 186.486 511.676 186.496 511.713 186.524 511.75 186.552 511.778 186.579 511.797 186.635 511.815 186.691 511.843 186.756 511.853 186.84 511.862 186.924 511.871 187.026 511.871 187.147Z" fill="#020202" fill-rule="nonzero" fill-opacity="1"/></g></g></g></g></g></svg>